#!OML:ASF I:\Random Stuff\random\construction\7_22_03\Session 2\subj1.ASF
:FULLY-SPECIFIED
:DEGREES
2781
root 12.6766 17.3342 -12.1249 -304.989 -100.072 338.145
lowerback 31.3584 -4.57516 4.8087
upperback 9.48967 -5.37261 -1.2945
thorax -6.84714 -2.88336 -2.23579
lowerneck -28.738 2.22087 -2.83754
upperneck 25.3448 3.54528 2.26948
head 13.1818 1.54697 2.03323
rclavicle 9.93923e-015 4.35338e-014
rhumerus -11.7805 36.13 -66.7151
rradius 95.4452
rwrist 3.9947
rhand -5.35924 35.374
rfingers 7.12502
rthumb 20.4482 6.43075
lclavicle 9.93923e-015 4.35338e-014
lhumerus 16.7722 -30.1584 83.3667
lradius 65.6682
lwrist 93.5227
lhand -13.976 68.6326
lfingers 7.12502
lthumb 12.1523 261.74
rfemur -59.1444 2.06117 17.1542
rtibia 28.2007
rfoot -6.01682 5.32682
rtoes -16.2227
lfemur -29.6006 -3.84128 -8.61307
ltibia 32.7557
lfoot -5.98672 -2.52347
ltoes -34.8824
2782
root 12.6609 17.3329 -12.0986 -307.283 -100.573 340.234
lowerback 31.1223 -4.58014 4.7914
upperback 9.45714 -5.41029 -1.4286
thorax -6.79203 -2.90195 -2.37382
lowerneck -28.6716 2.39958 -2.60816
upperneck 25.7429 3.75787 2.02795
head 13.3376 1.61386 1.9485
rclavicle -3.4191e-014 2.22639e-014
rhumerus -12.8461 36.2697 -66.4544
rradius 95.9337
rwrist 3.32743
rhand -5.02845 35.2138
rfingers 7.12502
rthumb 20.7661 6.30493
lclavicle -3.4191e-014 2.22639e-014
lhumerus 16.8403 -28.6024 83.957
lradius 65.5214
lwrist 95.8781
lhand -14.709 69.0417
lfingers 7.12502
lthumb 11.4454 261.291
rfemur -58.8766 2.63992 16.9125
rtibia 28.0864
rfoot -5.97029 5.28665
rtoes -16.6013
lfemur -29.0289 -3.40484 -8.90109
ltibia 32.6459
lfoot -6.10747 -2.34406
ltoes -35.0663
2783
root 12.6403 17.3338 -12.074 -309.21 -101.016 341.922
lowerback 30.9194 -4.59581 4.85246
upperback 9.47135 -5.4424 -1.5633
thorax -6.70337 -2.9184 -2.55945
lowerneck -28.8347 2.56764 -2.27215
upperneck 26.2586 3.90458 1.82025
head 13.5936 1.66466 1.85447
rclavicle 7.23576e-014 -1.68967e-014
rhumerus -13.9029 36.1525 -66.3043
rradius 96.1527
rwrist 2.96351
rhand -4.75175 34.9272
rfingers 7.12502
rthumb 21.0319 6.04768
lclavicle 7.23576e-014 -1.68967e-014
lhumerus 16.9879 -27.5542 84.1242
lradius 65.5358
lwrist 97.7964
lhand -15.2912 69.2693
lfingers 7.12502
lthumb 10.8839 261.033
rfemur -58.5159 3.0489 16.7919
rtibia 27.9202
rfoot -5.97857 5.38409
rtoes -16.9199
lfemur -28.4605 -3.01943 -9.17269
ltibia 32.5625
lfoot -6.1577 -2.15715
ltoes -35.1053
2784
root 12.6171 17.3371 -12.0576 -310.957 -101.468 343.407
lowerback 30.7208 -4.50683 4.91207
upperback 9.47594 -5.33937 -1.65175
thorax -6.61088 -2.87157 -2.74174
lowerneck -28.8911 2.64712 -2.10709
upperneck 26.7395 3.94663 1.77066
head 13.8119 1.67718 1.82776
rclavicle 1.51076e-014 -9.34288e-015
rhumerus -15.1799 35.6236 -66.2319
rradius 96.2158
rwrist 2.47063
rhand -3.94134 34.3706
rfingers 7.12502
rthumb 21.8103 5.57961
lclavicle 1.51076e-014 -9.34288e-015
lhumerus 17.0533 -27.1614 84.0911
lradius 65.838
lwrist 98.9099
lhand -15.6676 69.4128
lfingers 7.12502
lthumb 10.5208 260.87
rfemur -58.0844 3.3359 16.8172
rtibia 27.7181
rfoot -6.04173 5.63245
rtoes -17.02
lfemur -27.8943 -2.45551 -9.46331
ltibia 32.5428
lfoot -6.04768 -2.1699
ltoes -35.1086
2785
root 12.5851 17.3446 -12.0411 -312.532 -101.919 344.706
lowerback 30.4503 -4.38819 5.09837
upperback 9.47291 -5.16345 -1.72497
thorax -6.493 -2.78924 -3.00922
lowerneck -28.7546 2.65807 -2.07982
upperneck 27.0674 3.91055 1.83618
head 13.9241 1.66353 1.8468
rclavicle 5.56597e-015 -5.76476e-014
rhumerus -16.5399 34.7213 -66.1878
rradius 96.0682
rwrist 1.64692
rhand -2.55336 33.4846
rfingers 7.12502
rthumb 23.1426 4.85465
lclavicle 5.56597e-015 -5.76476e-014
lhumerus 17.0949 -27.3546 83.8921
lradius 65.9985
lwrist 98.4265
lhand -15.7859 69.5623
lfingers 7.12502
lthumb 10.4067 260.715
rfemur -57.6075 3.5822 16.8163
rtibia 27.509
rfoot -6.10263 5.92172
rtoes -16.8528
lfemur -27.3721 -2.16118 -9.73097
ltibia 32.6044
lfoot -5.69024 -1.97524
ltoes -34.9817
2786
root 12.557 17.3571 -12.0353 -313.166 -102.252 345.097
lowerback 30.1818 -4.27072 5.16952
upperback 9.43134 -5.00695 -1.72277
thorax -6.40582 -2.71476 -3.11685
lowerneck -28.562 2.6382 -2.09349
upperneck 27.2975 3.82408 1.97422
head 13.9822 1.63787 1.88851
rclavicle -3.73715e-014 6.44062e-014
rhumerus -17.7922 33.6036 -66.1583
rradius 95.6534
rwrist 0.316274
rhand -0.720785 32.438
rfingers 7.12502
rthumb 24.8998 4.03987
lclavicle -3.73715e-014 6.44062e-014
lhumerus 17.0608 -27.9737 83.5156
lradius 65.8799
lwrist 96.5189
lhand -15.5736 69.5932
lfingers 7.12502
lthumb 10.6115 260.695
rfemur -57.167 3.9214 16.5489
rtibia 27.3128
rfoot -6.08328 5.87165
rtoes -16.7585
lfemur -27.0761 -1.83738 -10.0108
ltibia 32.7792
lfoot -5.14248 -2.0669
ltoes -34.4702
2787
root 12.5297 17.3693 -12.0346 -313.079 -102.543 344.816
lowerback 29.824 -4.15054 5.13131
upperback 9.40066 -4.87906 -1.70739
thorax -6.25909 -2.65199 -3.14099
lowerneck -28.511 2.61215 -2.00486
upperneck 27.5828 3.69589 2.08166
head 14.0974 1.59953 1.89757
rclavicle 2.22639e-014 -3.18055e-015
rhumerus -18.838 32.2885 -66.2029
rradius 94.93
rwrist -1.60634
rhand 1.3656 31.4729
rfingers 7.12502
rthumb 26.8977 3.36674
lclavicle 2.22639e-014 -3.18055e-015
lhumerus 16.9122 -28.8439 82.9694
lradius 65.9981
lwrist 94.4814
lhand -13.1183 70.1894
lfingers 7.12502
lthumb 12.9792 260.234
rfemur -56.791 4.27601 16.0853
rtibia 27.1155
rfoot -6.06293 5.64528
rtoes -16.9365
lfemur -26.9957 -1.44454 -10.3642
ltibia 33.1147
lfoot -4.45565 -2.37922
ltoes -33.4479
2788
root 12.4997 17.3833 -12.0369 -312.626 -102.766 344.22
lowerback 29.3579 -4.03967 5.10086
upperback 9.3797 -4.76265 -1.68146
thorax -6.05096 -2.59253 -3.15862
lowerneck -28.5409 2.56746 -1.81675
upperneck 27.8961 3.52179 2.1166
head 14.2479 1.54146 1.85426
rclavicle -2.10712e-014 1.11319e-014
rhumerus -19.7336 30.755 -66.3093
rradius 94.0207
rwrist -4.23723
rhand 2.57159 32.0429
rfingers 7.12502
rthumb 28.0511 4.11991
lclavicle -2.10712e-014 1.11319e-014
lhumerus 16.6549 -30.2271 82.2309
lradius 67.1643
lwrist 94.6539
lhand -13.2368 70.0448
lfingers 7.12502
lthumb 12.8649 260.372
rfemur -56.4641 4.58133 15.5774
rtibia 26.9468
rfoot -6.08375 5.38022
rtoes -16.719
lfemur -27.089 -0.990578 -10.741
ltibia 33.6337
lfoot -3.62473 -2.77984
ltoes -32.4544
2789
root 12.4681 17.4022 -12.0425 -312.191 -102.88 343.615
lowerback 28.9252 -3.93611 5.17139
upperback 9.32585 -4.61805 -1.61764
thorax -5.89448 -2.51917 -3.19776
lowerneck -28.5104 2.45169 -1.78263
upperneck 28.1809 3.25143 2.32956
head 14.3695 1.45376 1.88764
rclavicle -9.14409e-014 2.36554e-014
rhumerus -20.6005 29.0889 -66.4848
rradius 93.1537
rwrist -7.81312
rhand 5.73213 28.082
rfingers 7.12502
rthumb 31.068 0.693524
lclavicle -9.14409e-014 2.36554e-014
lhumerus 16.3626 -32.1157 81.3841
lradius 68.6656
lwrist 94.6913
lhand -13.2116 69.7593
lfingers 7.12502
lthumb 12.8892 260.659
rfemur -56.0856 4.88143 15.1076
rtibia 26.8022
rfoot -6.12825 5.04898
rtoes -16.5053
lfemur -27.3117 -0.412602 -11.0784
ltibia 34.3604
lfoot -2.61307 -3.27846
ltoes -31.3746
